<svg xmlns="http://www.w3.org/2000/svg" width="11.985" height="11.304" viewBox="0 0 11.985 11.304">
  <g id="Regular-S" transform="translate(-9.766 72.9)">
    <path id="패스_2046" data-name="패스 2046" d="M13.217-61.6a.743.743,0,0,0,.413-.12,3.975,3.975,0,0,0,.468-.375l1.843-1.65h3.232a3.048,3.048,0,0,0,1.42-.3,1.97,1.97,0,0,0,.866-.873,3.075,3.075,0,0,0,.292-1.406v-4a3.075,3.075,0,0,0-.292-1.406,1.97,1.97,0,0,0-.866-.873,3.048,3.048,0,0,0-1.42-.3H12.344a3.049,3.049,0,0,0-1.42.3,1.97,1.97,0,0,0-.866.873,3.075,3.075,0,0,0-.292,1.406v4a3.075,3.075,0,0,0,.292,1.406,1.97,1.97,0,0,0,.866.873,3.049,3.049,0,0,0,1.42.3h.2v1.368a.857.857,0,0,0,.175.567A.613.613,0,0,0,13.217-61.6Zm.254-1.128v-1.547a.487.487,0,0,0-.107-.358.5.5,0,0,0-.354-.1h-.667a1.6,1.6,0,0,1-1.21-.4,1.67,1.67,0,0,1-.378-1.19v-4a1.657,1.657,0,0,1,.378-1.186,1.612,1.612,0,0,1,1.21-.4h6.828a1.612,1.612,0,0,1,1.21.4,1.657,1.657,0,0,1,.378,1.186v4a1.669,1.669,0,0,1-.378,1.19,1.6,1.6,0,0,1-1.21.4H15.885a1.3,1.3,0,0,0-.4.052.8.8,0,0,0-.32.23Zm-.44-7.034h5.439a.326.326,0,0,0,.244-.1.343.343,0,0,0,.1-.248.332.332,0,0,0-.1-.244.332.332,0,0,0-.244-.1H13.032a.332.332,0,0,0-.244.1.332.332,0,0,0-.1.244.343.343,0,0,0,.1.248A.326.326,0,0,0,13.032-69.758Zm0,1.753h5.439a.326.326,0,0,0,.244-.1.343.343,0,0,0,.1-.248.344.344,0,0,0-.1-.248.326.326,0,0,0-.244-.1H13.032a.326.326,0,0,0-.244.1.344.344,0,0,0-.1.248.343.343,0,0,0,.1.248A.326.326,0,0,0,13.032-68Zm0,1.753h3.521a.332.332,0,0,0,.244-.1.332.332,0,0,0,.1-.244.352.352,0,0,0-.1-.254.326.326,0,0,0-.244-.1H13.032a.326.326,0,0,0-.244.1.352.352,0,0,0-.1.254.332.332,0,0,0,.1.244A.332.332,0,0,0,13.032-66.251Z" transform="translate(0 0)" fill="#afafaf"/>
  </g>
</svg>
