<svg xmlns="http://www.w3.org/2000/svg" xmlns:xlink="http://www.w3.org/1999/xlink" width="24" height="24" viewBox="0 0 24 24">
  <defs>
    <linearGradient id="linear-gradient" x1="0.171" y1="0.121" x2="0.9" y2="0.822" gradientUnits="objectBoundingBox">
      <stop offset="0" stop-color="#6316ab"/>
      <stop offset="0.236" stop-color="#a816a1"/>
      <stop offset="0.542" stop-color="#e62375"/>
      <stop offset="0.764" stop-color="#fa723c"/>
      <stop offset="1" stop-color="#fcc242"/>
    </linearGradient>
  </defs>
  <g id="그룹_1629" data-name="그룹 1629" transform="translate(-156 -1815)">
    <circle id="타원_585" data-name="타원 585" cx="12" cy="12" r="12" transform="translate(156 1815)" fill="url(#linear-gradient)"/>
    <g id="그룹_1618" data-name="그룹 1618" transform="translate(16.549 1464.432)">
      <path id="패스_1903" data-name="패스 1903" d="M154.832,354.568h-6.763a4.619,4.619,0,0,0-4.618,4.619v6.764a4.618,4.618,0,0,0,4.618,4.618h6.763a4.618,4.618,0,0,0,4.619-4.618v-6.764A4.619,4.619,0,0,0,154.832,354.568Zm3.145,11.5a3.066,3.066,0,0,1-3.066,3.065H147.99a3.066,3.066,0,0,1-3.066-3.065v-6.923a3.066,3.066,0,0,1,3.066-3.066h6.922a3.066,3.066,0,0,1,3.066,3.066Z" transform="translate(0 0)" fill="#fff"/>
      <path id="패스_1904" data-name="패스 1904" d="M157.455,364.58a4.1,4.1,0,1,0,4.1,4.095A4.1,4.1,0,0,0,157.455,364.58Zm0,6.75a2.654,2.654,0,1,1,2.655-2.655A2.655,2.655,0,0,1,157.455,371.33Z" transform="translate(-6.004 -6.067)" fill="#fff"/>
      <path id="패스_1905" data-name="패스 1905" d="M173.588,361.684a.981.981,0,1,0,.981.981A.981.981,0,0,0,173.588,361.684Z" transform="translate(-17.856 -4.358)" fill="#fff"/>
    </g>
  </g>
</svg>
