<svg xmlns="http://www.w3.org/2000/svg" width="24" height="24" viewBox="0 0 24 24">
  <g id="매칭" transform="translate(-135 -880)">
    <rect id="사각형_438" data-name="사각형 438" width="24" height="24" transform="translate(135 880)" fill="none"/>
    <g id="매칭_-_바텀" data-name="매칭 - 바텀" transform="translate(135 880)">
      <g id="icon_24">
        <rect id="사각형_169" data-name="사각형 169" width="24" height="24" fill="none"/>
      </g>
      <g id="Light-S" transform="translate(0 2)">
        <path id="패스_559" data-name="패스 559" d="M13-51.134H30.8a2.912,2.912,0,0,0,2.194-.8,3.27,3.27,0,0,0,.772-2.362V-65.057a3.158,3.158,0,0,0-.811-2.358,3.34,3.34,0,0,0-2.427-.793H20.276a2.789,2.789,0,0,1-.951-.138,2.735,2.735,0,0,1-.788-.481l-.629-.53a3.271,3.271,0,0,0-1.005-.611,3.972,3.972,0,0,0-1.268-.165H12.6a2.811,2.811,0,0,0-2.1.749,3.1,3.1,0,0,0-.736,2.255v12.836a3.16,3.16,0,0,0,.815,2.367A3.343,3.343,0,0,0,13-51.134Zm.027-1.493a1.8,1.8,0,0,1-1.3-.437,1.728,1.728,0,0,1-.453-1.3v-12.68a1.606,1.606,0,0,1,.417-1.2,1.678,1.678,0,0,1,1.218-.406h2.35a2.587,2.587,0,0,1,.928.143,2.912,2.912,0,0,1,.788.495l.638.53a3.068,3.068,0,0,0,.994.6,4.068,4.068,0,0,0,1.288.169H30.5a1.8,1.8,0,0,1,1.3.439,1.721,1.721,0,0,1,.46,1.3v10.621a1.7,1.7,0,0,1-.46,1.293,1.809,1.809,0,0,1-1.3.437ZM10.68-62.873H32.86v-1.4H10.68Z" transform="translate(-9.766 70.134)" fill="#6f7283"/>
      </g>
    </g>
  </g>
</svg>
