<svg xmlns="http://www.w3.org/2000/svg" width="24" height="24" viewBox="0 0 24 24">
  <g id="그룹_677" data-name="그룹 677" transform="translate(-1641 -961)">
    <rect id="사각형_955" data-name="사각형 955" width="24" height="24" transform="translate(1641 961)" fill="none"/>
    <g id="Regular-S" transform="translate(1632.699 1033.871)">
      <path id="패스_728" data-name="패스 728" d="M20.306-52.886a12.913,12.913,0,0,0,3.981-.594A14.645,14.645,0,0,0,27.608-55a14.53,14.53,0,0,0,2.525-1.971,10.83,10.83,0,0,0,1.607-1.954,3.074,3.074,0,0,0,.56-1.45,3.1,3.1,0,0,0-.56-1.456,10.485,10.485,0,0,0-1.613-1.954A15,15,0,0,0,27.6-65.754a14.527,14.527,0,0,0-3.315-1.523,12.913,12.913,0,0,0-3.981-.594,12.746,12.746,0,0,0-3.942.594,14.676,14.676,0,0,0-3.315,1.523,15.31,15.31,0,0,0-2.542,1.965,10.7,10.7,0,0,0-1.635,1.954A3.066,3.066,0,0,0,8.3-60.379a3.037,3.037,0,0,0,.571,1.45,11.062,11.062,0,0,0,1.63,1.954A14.832,14.832,0,0,0,13.044-55a14.8,14.8,0,0,0,3.321,1.523A12.747,12.747,0,0,0,20.306-52.886Zm0-2.587a4.762,4.762,0,0,1-2.492-.666,5.024,5.024,0,0,1-1.775-1.786,4.822,4.822,0,0,1-.672-2.453,4.793,4.793,0,0,1,.661-2.492,4.889,4.889,0,0,1,1.781-1.764,4.887,4.887,0,0,1,2.5-.65,4.835,4.835,0,0,1,2.481.65,4.9,4.9,0,0,1,1.775,1.764,4.793,4.793,0,0,1,.661,2.492,4.739,4.739,0,0,1-.661,2.453,5.023,5.023,0,0,1-1.775,1.786A4.741,4.741,0,0,1,20.306-55.473Zm0-3.069a1.785,1.785,0,0,0,1.3-.543,1.757,1.757,0,0,0,.549-1.294,1.77,1.77,0,0,0-.549-1.3,1.785,1.785,0,0,0-1.3-.543,1.8,1.8,0,0,0-1.31.543,1.77,1.77,0,0,0-.549,1.3A1.758,1.758,0,0,0,19-59.085,1.8,1.8,0,0,0,20.306-58.542Z" fill="#000"/>
    </g>
  </g>
</svg>
