<svg xmlns="http://www.w3.org/2000/svg" width="24" height="24" viewBox="0 0 24 24">
  <g id="그룹_1644" data-name="그룹 1644" transform="translate(-123 -2039)">
    <g id="타원_589" data-name="타원 589" transform="translate(123 2039)" fill="#fff" stroke="#e2e2e2" stroke-width="1">
      <circle cx="12" cy="12" r="12" stroke="none"/>
      <circle cx="12" cy="12" r="11.5" fill="none"/>
    </g>
    <g id="Regular-S" transform="translate(118.234 2121.416)">
      <path id="패스_1977" data-name="패스 1977" d="M9.766-66.217a1.757,1.757,0,0,0,.483,1.352,2.092,2.092,0,0,0,1.466.448H21.793a2.146,2.146,0,0,0,1.481-.445,1.72,1.72,0,0,0,.491-1.342V-74.63a1.72,1.72,0,0,0-.491-1.342,2.146,2.146,0,0,0-1.481-.445H14.515a2.146,2.146,0,0,0-1.481.445,1.72,1.72,0,0,0-.491,1.342V-72.1h-1.47a1.433,1.433,0,0,0-.963.3,1.025,1.025,0,0,0-.344.822Zm1.114.007v-4.562a.285.285,0,0,1,.085-.221.341.341,0,0,1,.24-.078h1.338v4.861a.706.706,0,0,1-.244.552.848.848,0,0,1-.584.217.842.842,0,0,1-.592-.224A.713.713,0,0,1,10.879-66.21Zm2.6.769a1.975,1.975,0,0,0,.178-.84v-8.292a.784.784,0,0,1,.228-.612.929.929,0,0,1,.646-.206h7.248a.929.929,0,0,1,.646.206.784.784,0,0,1,.228.612v8.313a.784.784,0,0,1-.228.612.929.929,0,0,1-.646.206Zm1.694-7.573h5.971a.416.416,0,0,0,.3-.114.368.368,0,0,0,.12-.278.35.35,0,0,0-.12-.267.423.423,0,0,0-.3-.11H15.172a.448.448,0,0,0-.309.11.345.345,0,0,0-.124.267.363.363,0,0,0,.124.278A.439.439,0,0,0,15.172-73.014Zm0,1.943h5.971a.431.431,0,0,0,.3-.107.346.346,0,0,0,.12-.27.368.368,0,0,0-.12-.278.416.416,0,0,0-.3-.114H15.172a.439.439,0,0,0-.309.114.363.363,0,0,0-.124.278.342.342,0,0,0,.124.27A.457.457,0,0,0,15.172-71.071Zm.333,3.95h1.562a.808.808,0,0,0,.568-.189.667.667,0,0,0,.2-.516v-1.359a.664.664,0,0,0-.2-.52.818.818,0,0,0-.568-.185H15.5a.806.806,0,0,0-.561.185.664.664,0,0,0-.2.52v1.359a.667.667,0,0,0,.2.516A.8.8,0,0,0,15.5-67.121Zm3.411-2h2.228a.423.423,0,0,0,.3-.11.35.35,0,0,0,.12-.267.368.368,0,0,0-.12-.278.416.416,0,0,0-.3-.114H18.916a.426.426,0,0,0-.306.114.368.368,0,0,0-.12.278.35.35,0,0,0,.12.267A.434.434,0,0,0,18.916-69.121Zm0,2h2.228a.423.423,0,0,0,.3-.11.35.35,0,0,0,.12-.267.376.376,0,0,0-.12-.285.416.416,0,0,0-.3-.114H18.916a.426.426,0,0,0-.306.114.376.376,0,0,0-.12.285.35.35,0,0,0,.12.267A.434.434,0,0,0,18.916-67.121Z" fill="#000" />
    </g>
  </g>
</svg>
