<svg xmlns="http://www.w3.org/2000/svg" width="24" height="24" viewBox="0 0 24 24">
  <g id="그룹_596" data-name="그룹 596" transform="translate(-9267 -7720)">
    <rect id="사각형_605" data-name="사각형 605" width="24" height="24" transform="translate(9267 7720)" fill="none"/>
    <path id="패스_342" data-name="패스 342" d="M9.766-58.537a3.762,3.762,0,0,0,.947,2.8,3.874,3.874,0,0,0,2.826.932H27.226a3.25,3.25,0,0,0,2.471-.932,3.917,3.917,0,0,0,.888-2.8V-70.449a3.762,3.762,0,0,0-.947-2.8,3.874,3.874,0,0,0-2.826-.932h-1.7a4.458,4.458,0,0,0-.725-2.308,5.152,5.152,0,0,0-1.79-1.687,4.794,4.794,0,0,0-2.427-.636,4.766,4.766,0,0,0-2.412.636,5.152,5.152,0,0,0-1.79,1.687,4.458,4.458,0,0,0-.725,2.308h-1.7a3.874,3.874,0,0,0-2.826.932,3.762,3.762,0,0,0-.947,2.8Zm7.605-15.64a2.586,2.586,0,0,1,.414-1.332,2.811,2.811,0,0,1,1.014-.94,2.782,2.782,0,0,1,1.369-.348,2.77,2.77,0,0,1,1.376.348,2.829,2.829,0,0,1,1.006.94,2.586,2.586,0,0,1,.414,1.332Z" transform="translate(9259.234 7798.809)" fill="#757575"/>
  </g>
</svg>
