<svg xmlns="http://www.w3.org/2000/svg" width="9.301" height="16.537" viewBox="0 0 9.301 16.537">
  <g id="Regular-S" transform="translate(-4.883 69.287)">
    <path id="패스_845" data-name="패스 845" d="M4.883-61.019a.9.9,0,0,0,.077.374,1.214,1.214,0,0,0,.219.326l7.331,7.284a.951.951,0,0,0,.7.285.942.942,0,0,0,.694-.279.942.942,0,0,0,.279-.694,1,1,0,0,0-.285-.7l-6.62-6.6,6.62-6.6a1,1,0,0,0,.285-.7.942.942,0,0,0-.279-.694.942.942,0,0,0-.694-.279.951.951,0,0,0-.7.285L5.179-61.718A.957.957,0,0,0,4.883-61.019Z" transform="translate(0 0)"/>
  </g>
</svg>
