<svg xmlns="http://www.w3.org/2000/svg" width="24" height="24" viewBox="0 0 24 24">
  <g id="정산" transform="translate(-225 -880)">
    <rect id="사각형_439" data-name="사각형 439" width="24" height="24" transform="translate(225 880)" fill="none"/>
    <g id="정산_-_바텀" data-name="정산 - 바텀" transform="translate(225 880)">
      <g id="icon_24">
        <rect id="사각형_169" data-name="사각형 169" width="24" height="24" fill="none"/>
      </g>
      <g id="Light-S" transform="translate(2 2)">
        <path id="패스_243" data-name="패스 243" d="M13.1-50.117H26.432a3.394,3.394,0,0,0,2.5-.834,3.349,3.349,0,0,0,.834-2.47v-13.4a3.341,3.341,0,0,0-.834-2.467,3.4,3.4,0,0,0-2.5-.832H13.1a3.409,3.409,0,0,0-2.494.829,3.328,3.328,0,0,0-.839,2.47v13.4a3.335,3.335,0,0,0,.839,2.474A3.409,3.409,0,0,0,13.1-50.117Zm.028-1.561a1.84,1.84,0,0,1-1.343-.457,1.824,1.824,0,0,1-.466-1.361V-66.739a1.827,1.827,0,0,1,.466-1.356,1.829,1.829,0,0,1,1.343-.461H26.4a1.832,1.832,0,0,1,1.338.461,1.816,1.816,0,0,1,.471,1.356V-53.5a1.813,1.813,0,0,1-.471,1.361,1.843,1.843,0,0,1-1.338.457Zm2.093-8.63a.5.5,0,0,0,.14.352.461.461,0,0,0,.354.151h.639l.7,4.408a.684.684,0,0,0,.24.44.709.709,0,0,0,.459.156.741.741,0,0,0,.452-.144.626.626,0,0,0,.238-.438l.783-4.436H20.32l.807,4.431a.658.658,0,0,0,.238.44.728.728,0,0,0,.457.147.709.709,0,0,0,.455-.154.693.693,0,0,0,.245-.438l.685-4.427h.629a.47.47,0,0,0,.359-.149.494.494,0,0,0,.14-.349.441.441,0,0,0-.5-.5H23.36l.545-3.527q.014-.079.023-.144a.988.988,0,0,0,.009-.14.5.5,0,0,0-.172-.4.639.639,0,0,0-.434-.149.669.669,0,0,0-.4.13.541.541,0,0,0-.212.391l-.508,3.84H21.188l-.69-3.733a.684.684,0,0,0-.252-.457.763.763,0,0,0-.48-.158.737.737,0,0,0-.471.158.7.7,0,0,0-.247.466l-.685,3.733h-1l-.485-3.835a.576.576,0,0,0-.214-.4.665.665,0,0,0-.415-.135.652.652,0,0,0-.448.156.518.518,0,0,0-.177.408.885.885,0,0,0,.014.163q.014.075.023.149l.545,3.49h-.489a.48.48,0,0,0-.354.14A.486.486,0,0,0,15.22-60.308Zm2.275.48h.723l-.424,2.647Zm1.921-.979.364-2.251.368,2.251Zm1.925.979h.765l-.326,2.693Z" transform="translate(-9.766 70.117)" fill="#6f7283"/>
      </g>
    </g>
  </g>
</svg>
