<svg xmlns="http://www.w3.org/2000/svg" width="24" height="24" viewBox="0 0 24 24">
  <g id="매칭" transform="translate(-135 -880)">
    <rect id="사각형_438" data-name="사각형 438" width="24" height="24" transform="translate(135 880)" fill="none"/>
    <g id="매칭_-_바텀" data-name="매칭 - 바텀" transform="translate(135 880)">
      <g id="icon_24">
        <rect id="사각형_169" data-name="사각형 169" width="24" height="24" fill="none"/>
      </g>
      <g id="Regular-S" transform="translate(0 2)">
        <path id="패스_523" data-name="패스 523" d="M9.766-55.2a3.289,3.289,0,0,0,.857,2.477,3.552,3.552,0,0,0,2.557.826H30.741a2.952,2.952,0,0,0,2.229-.826,3.44,3.44,0,0,0,.8-2.477v-8.334h-24Zm0-9.854h24v-.681a3.282,3.282,0,0,0-.85-2.47,3.566,3.566,0,0,0-2.563-.819H20.327a2.255,2.255,0,0,1-.85-.144,3.191,3.191,0,0,1-.743-.446l-.669-.524a3.407,3.407,0,0,0-1.024-.59,3.991,3.991,0,0,0-1.265-.17h-3a2.96,2.96,0,0,0-2.215.812,3.371,3.371,0,0,0-.8,2.45Z" transform="translate(-9.766 70.898)" fill="#fff"/>
      </g>
    </g>
  </g>
</svg>
