<svg xmlns="http://www.w3.org/2000/svg" xmlns:xlink="http://www.w3.org/1999/xlink" width="60" height="44" viewBox="0 0 60 44">
  <defs>
    <linearGradient id="linear-gradient" x1="0.5" x2="0.5" y2="1" gradientUnits="objectBoundingBox">
      <stop offset="0" stop-color="#fff" stop-opacity="0.251"/>
      <stop offset="1" stop-color="#fff" stop-opacity="0"/>
    </linearGradient>
  </defs>
  <g id="그룹_1800" data-name="그룹 1800" transform="translate(-19)">
    <g id="그룹_887" data-name="그룹 887" transform="translate(-6 -565)">
      <rect id="사각형_889" data-name="사각형 889" width="34" height="4" rx="2" transform="translate(38 565)" fill="#fff"/>
      <path id="패스_661" data-name="패스 661" d="M-1,0H29L44,40H-16Z" transform="translate(41 569)" fill="url(#linear-gradient)"/>
      <g id="그룹_598" data-name="그룹 598" opacity="0.6">
        <circle id="타원_197" data-name="타원 197" cx="1" cy="1" r="1" transform="translate(67 577)" fill="#fff"/>
        <circle id="타원_200" data-name="타원 200" cx="1" cy="1" r="1" transform="translate(41.564 573.063) rotate(-103)" fill="#fff"/>
        <circle id="타원_198" data-name="타원 198" cx="0.5" cy="0.5" r="0.5" transform="translate(65 581)" fill="#fff"/>
        <circle id="타원_201" data-name="타원 201" cx="0.5" cy="0.5" r="0.5" transform="translate(45.911 574.111) rotate(-103)" fill="#fff"/>
        <circle id="타원_202" data-name="타원 202" cx="0.5" cy="0.5" r="0.5" transform="translate(43.911 578) rotate(-103)" fill="#fff"/>
        <circle id="타원_199" data-name="타원 199" cx="0.5" cy="0.5" r="0.5" transform="translate(36 599)" fill="#fff"/>
      </g>
    </g>
    <g id="그룹_597" data-name="그룹 597" transform="translate(-9346 -7719)">
      <rect id="사각형_605" data-name="사각형 605" width="24" height="24" transform="translate(9383 7739)" fill="none"/>
      <path id="패스_412" data-name="패스 412" d="M9.766-66.068v9.359a1.314,1.314,0,0,0,.163.664,1.167,1.167,0,0,0,.454.447,1.352,1.352,0,0,0,.67.163,1.315,1.315,0,0,0,.664-.163,1.18,1.18,0,0,0,.447-.447,1.315,1.315,0,0,0,.163-.664V-68.195h-.339a2.6,2.6,0,0,0-1.185.251,1.8,1.8,0,0,0-.765.725A2.286,2.286,0,0,0,9.766-66.068Zm3.779,12.488H30.312a3.56,3.56,0,0,0,2.594-.846,3.436,3.436,0,0,0,.86-2.553V-73.016a3.436,3.436,0,0,0-.86-2.553,3.56,3.56,0,0,0-2.594-.846H18.082a3.56,3.56,0,0,0-2.594.846,3.436,3.436,0,0,0-.86,2.553v17.093A3.684,3.684,0,0,1,14.4-54.5,2.021,2.021,0,0,1,13.544-53.581Zm5.431-16.361a.735.735,0,0,1-.542-.217.719.719,0,0,1-.217-.528.681.681,0,0,1,.217-.508.748.748,0,0,1,.542-.21H29.432a.708.708,0,0,1,.521.21.692.692,0,0,1,.21.508.731.731,0,0,1-.21.528.7.7,0,0,1-.521.217Zm0,3.7a.761.761,0,0,1-.542-.2.675.675,0,0,1-.217-.515.719.719,0,0,1,.217-.528.735.735,0,0,1,.542-.217H29.432a.7.7,0,0,1,.521.217.731.731,0,0,1,.21.528.686.686,0,0,1-.21.515.72.72,0,0,1-.521.2Zm6.555,3.711a.725.725,0,0,1-.535-.21.692.692,0,0,1-.21-.508.731.731,0,0,1,.21-.528A.713.713,0,0,1,25.531-64h3.9a.7.7,0,0,1,.521.217.731.731,0,0,1,.21.528.692.692,0,0,1-.21.508.708.708,0,0,1-.521.21Zm0,3.806a.725.725,0,0,1-.535-.21.692.692,0,0,1-.21-.508.748.748,0,0,1,.21-.542.713.713,0,0,1,.535-.217h3.9a.7.7,0,0,1,.521.217.748.748,0,0,1,.21.542.692.692,0,0,1-.21.508.708.708,0,0,1-.521.21Zm-6.027.014a1.282,1.282,0,0,1-.948-.339A1.282,1.282,0,0,1,18.217-60v-2.722a1.263,1.263,0,0,1,.339-.935A1.282,1.282,0,0,1,19.5-64h2.614a1.282,1.282,0,0,1,.948.339,1.263,1.263,0,0,1,.339.935V-60a1.282,1.282,0,0,1-.339.948,1.282,1.282,0,0,1-.948.339Z" transform="translate(9373.234 7816.416)" fill="#fff"/>
    </g>
  </g>
</svg>
