<svg xmlns="http://www.w3.org/2000/svg" width="24" height="24" viewBox="0 0 24 24">
  <g id="그룹_1627" data-name="그룹 1627" transform="translate(-123 -1815)" >
    <circle id="타원_584" data-name="타원 584" cx="12" cy="12" r="12" transform="translate(123 1815)" fill="#000" />
    <g id="그룹_1619" data-name="그룹 1619" transform="translate(-1022.076 1373.191)">
      <path id="패스_1906" data-name="패스 1906" d="M1341.715,505.214a6.469,6.469,0,0,0,3.773,1.207v-2.706a3.811,3.811,0,0,1-.792-.083v2.13a6.47,6.47,0,0,1-3.773-1.207v5.522a5.006,5.006,0,0,1-7.791,4.156,5.005,5.005,0,0,0,8.583-3.5v-5.522Zm.978-2.73a3.772,3.772,0,0,1-.978-2.208v-.348h-.751a3.788,3.788,0,0,0,1.728,2.556m-7.812,9.63a2.29,2.29,0,0,1,2.517-3.566v-2.767a5.05,5.05,0,0,0-.792-.046v2.153a2.289,2.289,0,0,0-1.725,4.225" transform="translate(-180.837 -53.695)" fill="#f5284d" fill-rule="evenodd"/>
      <path id="패스_1907" data-name="패스 1907" d="M1224.662,504.555a6.47,6.47,0,0,0,3.773,1.207v-2.13a5.972,5.972,0,0,1-3.732-3.7h-1.972v10.809a3.237,3.237,0,1,1-2.387-2.847v-2.153a4.685,4.685,0,1,0,4.318,4.342Z" transform="translate(-64.577 -53.694)" fill="#fff" fill-rule="evenodd"/>
      <path id="패스_1908" data-name="패스 1908" d="M1163.858,449.937v-.576a3.774,3.774,0,0,1-2-.572,3.785,3.785,0,0,0,2,1.148m-3.732-3.7q-.027-.154-.042-.311v-.348h-2.723v10.809a2.29,2.29,0,0,1-3.319,2.036,2.29,2.29,0,0,0,4.112-1.377V446.233Zm-4.359,5.808v-.613a5.01,5.01,0,0,0-5.692,4.955,5,5,0,0,0,2.219,4.156,5,5,0,0,1,3.473-8.5" transform="translate(0 0)" fill="#2af2eb" fill-rule="evenodd"/>
    </g>
  </g>
</svg>
