<svg id="그룹_189" data-name="그룹 189" xmlns="http://www.w3.org/2000/svg" width="24" height="24" viewBox="0 0 24 24">
  <rect id="사각형_586" data-name="사각형 586" width="24" height="24" fill="none"/>
  <g id="Regular-S" transform="translate(2.671 1.872)">
    <path id="패스_377" data-name="패스 377" d="M9.4-59.757H24.214a1.84,1.84,0,0,0,1.2-.358,1.156,1.156,0,0,0,.436-.94,2.022,2.022,0,0,0-.6-1.364q-.6-.661-1.23-1.291a2.156,2.156,0,0,1-.436-.709,4.713,4.713,0,0,1-.255-.909,6.2,6.2,0,0,1-.1-.9,12.946,12.946,0,0,0-.818-4.885,4.7,4.7,0,0,0-2.758-2.691,3.609,3.609,0,0,0-1.03-1.564,2.617,2.617,0,0,0-1.818-.655,2.639,2.639,0,0,0-1.824.655,3.492,3.492,0,0,0-1.024,1.564,4.726,4.726,0,0,0-2.764,2.691,12.858,12.858,0,0,0-.824,4.885,5.187,5.187,0,0,1-.085.9,4.713,4.713,0,0,1-.255.909,2.156,2.156,0,0,1-.436.709q-.63.63-1.23,1.291a2.022,2.022,0,0,0-.6,1.364,1.162,1.162,0,0,0,.43.94A1.835,1.835,0,0,0,9.4-59.757Zm7.407,3.988a2.92,2.92,0,0,0,2.073-.782,2.676,2.676,0,0,0,.909-1.8H13.825a2.685,2.685,0,0,0,.9,1.8A2.914,2.914,0,0,0,16.807-55.769Z" transform="translate(-7.764 76.025)"/>
  </g>
</svg>
