<svg xmlns="http://www.w3.org/2000/svg" width="24" height="24" viewBox="0 0 24 24">
  <g id="그룹_1621" data-name="그룹 1621" transform="translate(-65 -1815)">
    <circle id="타원_582" data-name="타원 582" cx="12" cy="12" r="12" transform="translate(65 1815)" fill="#33ccfd"/>
    <path id="패스_1909" data-name="패스 1909" d="M407.716,145.723a6.094,6.094,0,0,1-1.736.477,3.039,3.039,0,0,0,1.328-1.672,6.091,6.091,0,0,1-1.918.733,3.021,3.021,0,0,0-5.225,2.066,3.072,3.072,0,0,0,.078.69,8.583,8.583,0,0,1-6.226-3.155,3.026,3.026,0,0,0,.935,4.032,3.022,3.022,0,0,1-1.367-.378v.039a3.025,3.025,0,0,0,2.423,2.962,3.134,3.134,0,0,1-.795.1,3.021,3.021,0,0,1-.57-.054,3.025,3.025,0,0,0,2.823,2.1,6.067,6.067,0,0,1-3.753,1.292,6.258,6.258,0,0,1-.72-.041,8.589,8.589,0,0,0,13.221-7.238c0-.129,0-.261-.008-.39a6.18,6.18,0,0,0,1.509-1.564" transform="translate(-322.994 1677.693)" fill="#fff"/>
  </g>
</svg>
