<svg id="정산_-_바텀" data-name="정산 - 바텀" xmlns="http://www.w3.org/2000/svg" width="24" height="24" viewBox="0 0 24 24">
  <g id="icon_24">
    <rect id="사각형_169" data-name="사각형 169" width="24" height="24" fill="none"/>
  </g>
  <g id="Regular-S" transform="translate(2 2)">
    <path id="패스_137" data-name="패스 137" d="M13.266-50.8h13a3.591,3.591,0,0,0,2.629-.864,3.5,3.5,0,0,0,.872-2.593V-67.344a3.5,3.5,0,0,0-.872-2.593,3.591,3.591,0,0,0-2.629-.864h-13a3.6,3.6,0,0,0-2.622.864,3.486,3.486,0,0,0-.879,2.593v13.086a3.486,3.486,0,0,0,.879,2.593A3.6,3.6,0,0,0,13.266-50.8ZM14.79-61.061a.6.6,0,0,1,.172-.446.586.586,0,0,1,.432-.171H15.9l-.549-3.4q-.014-.1-.027-.178a1.181,1.181,0,0,1-.014-.192.663.663,0,0,1,.227-.535.85.85,0,0,1,.57-.192.875.875,0,0,1,.528.165.682.682,0,0,1,.268.494l.467,3.841h.865l.563-3.676a.9.9,0,0,1,.323-.61.975.975,0,0,1,.625-.213,1.025,1.025,0,0,1,.631.206.864.864,0,0,1,.329.6l.577,3.676h.906l.48-3.855a.67.67,0,0,1,.268-.48.854.854,0,0,1,.515-.165.85.85,0,0,1,.556.185.628.628,0,0,1,.227.514,1.179,1.179,0,0,1-.014.192l-.027.165-.549,3.443h.494q.59,0,.59.617a.63.63,0,0,1-.165.432.543.543,0,0,1-.426.185h-.7l-.7,4.527a.914.914,0,0,1-.316.569.912.912,0,0,1-.59.2.962.962,0,0,1-.6-.192.834.834,0,0,1-.309-.576L20.2-60.458h-.865l-.686,4.527a.866.866,0,0,1-.323.583.986.986,0,0,1-.6.185.92.92,0,0,1-.583-.2.848.848,0,0,1-.309-.569l-.741-4.513h-.7a.564.564,0,0,1-.432-.185A.616.616,0,0,1,14.79-61.061Zm2.732.59.233,2.524.316-2.524Zm2.018-1.207h.494l-.261-2.044Zm1.922,1.207.329,2.62.275-2.62Z" transform="translate(-9.766 70.801)" fill="#fff"/>
  </g>
</svg>
