<svg xmlns="http://www.w3.org/2000/svg" width="24" height="24" viewBox="0 0 24 24">
  <g id="그룹_679" data-name="그룹 679" transform="translate(-2099 -948)">
    <rect id="사각형_967" data-name="사각형 967" width="24" height="24" transform="translate(2099 948)" fill="none"/>
    <g id="Regular-S" transform="translate(2090.699 1023.266)">
      <path fill="#000" id="패스_763" data-name="패스 763" d="M20.306-55.5a13.073,13.073,0,0,0,2.29-.2,12.907,12.907,0,0,0,2.077-.543l-2.3-2.307a4.687,4.687,0,0,1-1,.342,4.916,4.916,0,0,1-1.075.118,4.791,4.791,0,0,1-2.5-.666,4.964,4.964,0,0,1-1.775-1.786,4.854,4.854,0,0,1-.666-2.453,4.824,4.824,0,0,1,.123-1.092,5.661,5.661,0,0,1,.336-1.014l-3.08-3.08a13.248,13.248,0,0,0-2.363,1.87,10.711,10.711,0,0,0-1.54,1.9A3.01,3.01,0,0,0,8.3-62.994a3.037,3.037,0,0,0,.571,1.45A11.062,11.062,0,0,0,10.5-59.59a14.833,14.833,0,0,0,2.542,1.971A14.8,14.8,0,0,0,16.364-56.1,12.747,12.747,0,0,0,20.306-55.5ZM28.18-58a12.9,12.9,0,0,0,2.167-1.792,10.547,10.547,0,0,0,1.439-1.82,2.931,2.931,0,0,0,.515-1.383,3.1,3.1,0,0,0-.56-1.456A10.485,10.485,0,0,0,30.128-66.4,15,15,0,0,0,27.6-68.37a14.527,14.527,0,0,0-3.315-1.523,12.913,12.913,0,0,0-3.981-.594,13.536,13.536,0,0,0-2.083.157,12.95,12.95,0,0,0-1.926.448L18.582-67.6a5.18,5.18,0,0,1,.834-.224,4.968,4.968,0,0,1,.89-.078,4.835,4.835,0,0,1,2.481.65,4.9,4.9,0,0,1,1.775,1.764,4.793,4.793,0,0,1,.661,2.492,5,5,0,0,1-.078.885,3.8,3.8,0,0,1-.246.829ZM17.271-63.241a2.888,2.888,0,0,0,.414,1.518,3.123,3.123,0,0,0,1.109,1.1,2.948,2.948,0,0,0,1.523.409q.1,0,.19-.006t.19-.017l-3.4-3.4q-.011.1-.017.2T17.271-63.241Zm6.059.022a2.949,2.949,0,0,0-.4-1.518,3.047,3.047,0,0,0-1.092-1.1,2.939,2.939,0,0,0-1.529-.409q-.09,0-.179.006t-.179.017l3.36,3.36q.011-.09.017-.179T23.33-63.218ZM27.037-55.4a.775.775,0,0,0,.538.235.7.7,0,0,0,.549-.235.762.762,0,0,0,.23-.554.747.747,0,0,0-.23-.532L13.564-71.035a.8.8,0,0,0-.554-.23.7.7,0,0,0-.543.23.71.71,0,0,0-.224.538.746.746,0,0,0,.224.549Z"/>
    </g>
  </g>
</svg>
