<svg xmlns="http://www.w3.org/2000/svg" width="24" height="24" viewBox="0 0 24 24">
  <g id="그룹_597" data-name="그룹 597" transform="translate(-9383 -7739)">
    <rect id="사각형_605" data-name="사각형 605" width="24" height="24" transform="translate(9383 7739)" fill="none"/>
    <path id="패스_412" data-name="패스 412" d="M9.766-66.068v9.359a1.314,1.314,0,0,0,.163.664,1.167,1.167,0,0,0,.454.447,1.352,1.352,0,0,0,.67.163,1.315,1.315,0,0,0,.664-.163,1.18,1.18,0,0,0,.447-.447,1.315,1.315,0,0,0,.163-.664V-68.195h-.339a2.6,2.6,0,0,0-1.185.251,1.8,1.8,0,0,0-.765.725A2.286,2.286,0,0,0,9.766-66.068Zm3.779,12.488H30.312a3.56,3.56,0,0,0,2.594-.846,3.436,3.436,0,0,0,.86-2.553V-73.016a3.436,3.436,0,0,0-.86-2.553,3.56,3.56,0,0,0-2.594-.846H18.082a3.56,3.56,0,0,0-2.594.846,3.436,3.436,0,0,0-.86,2.553v17.093A3.684,3.684,0,0,1,14.4-54.5,2.021,2.021,0,0,1,13.544-53.581Zm5.431-16.361a.735.735,0,0,1-.542-.217.719.719,0,0,1-.217-.528.681.681,0,0,1,.217-.508.748.748,0,0,1,.542-.21H29.432a.708.708,0,0,1,.521.21.692.692,0,0,1,.21.508.731.731,0,0,1-.21.528.7.7,0,0,1-.521.217Zm0,3.7a.761.761,0,0,1-.542-.2.675.675,0,0,1-.217-.515.719.719,0,0,1,.217-.528.735.735,0,0,1,.542-.217H29.432a.7.7,0,0,1,.521.217.731.731,0,0,1,.21.528.686.686,0,0,1-.21.515.72.72,0,0,1-.521.2Zm6.555,3.711a.725.725,0,0,1-.535-.21.692.692,0,0,1-.21-.508.731.731,0,0,1,.21-.528A.713.713,0,0,1,25.531-64h3.9a.7.7,0,0,1,.521.217.731.731,0,0,1,.21.528.692.692,0,0,1-.21.508.708.708,0,0,1-.521.21Zm0,3.806a.725.725,0,0,1-.535-.21.692.692,0,0,1-.21-.508.748.748,0,0,1,.21-.542.713.713,0,0,1,.535-.217h3.9a.7.7,0,0,1,.521.217.748.748,0,0,1,.21.542.692.692,0,0,1-.21.508.708.708,0,0,1-.521.21Zm-6.027.014a1.282,1.282,0,0,1-.948-.339A1.282,1.282,0,0,1,18.217-60v-2.722a1.263,1.263,0,0,1,.339-.935A1.282,1.282,0,0,1,19.5-64h2.614a1.282,1.282,0,0,1,.948.339,1.263,1.263,0,0,1,.339.935V-60a1.282,1.282,0,0,1-.339.948,1.282,1.282,0,0,1-.948.339Z" transform="translate(9373.234 7816.416)" fill="#757575"/>
  </g>
</svg>
