<svg xmlns="http://www.w3.org/2000/svg" width="23.716" height="23.683" viewBox="0 0 23.716 23.683">
  <g id="Light-S" transform="translate(-6.836 75.781)">
    <path id="패스_3369" data-name="패스 3369" d="M17.56-52.1h2.253a1.663,1.663,0,0,0,1.058-.345,1.661,1.661,0,0,0,.587-.944l.485-2.125.452-.157,1.835,1.146a1.609,1.609,0,0,0,1.086.261,1.656,1.656,0,0,0,.991-.513l1.573-1.564a1.651,1.651,0,0,0,.509-.993,1.592,1.592,0,0,0-.266-1.074l-1.155-1.84.162-.428,2.125-.49a1.718,1.718,0,0,0,.946-.592,1.626,1.626,0,0,0,.352-1.048v-2.215a1.665,1.665,0,0,0-.345-1.055,1.638,1.638,0,0,0-.953-.585l-2.106-.509-.171-.433,1.155-1.844a1.593,1.593,0,0,0,.266-1.074,1.692,1.692,0,0,0-.509-1l-1.573-1.564a1.629,1.629,0,0,0-.986-.509,1.65,1.65,0,0,0-1.081.257L22.4-72.2l-.461-.171-.485-2.12a1.661,1.661,0,0,0-.587-.944,1.663,1.663,0,0,0-1.058-.345H17.56a1.643,1.643,0,0,0-1.053.345,1.648,1.648,0,0,0-.578.944l-.485,2.12-.475.171-1.844-1.136a1.641,1.641,0,0,0-1.077-.257,1.666,1.666,0,0,0-.991.509L9.493-71.522a1.669,1.669,0,0,0-.511,1,1.617,1.617,0,0,0,.264,1.074L10.4-67.6l-.171.433-2.1.509a1.633,1.633,0,0,0-.944.585,1.665,1.665,0,0,0-.345,1.055V-62.8a1.633,1.633,0,0,0,.349,1.048,1.7,1.7,0,0,0,.939.592l2.12.49.162.428-1.15,1.84a1.546,1.546,0,0,0-.271,1.074,1.665,1.665,0,0,0,.518.993l1.564,1.564a1.675,1.675,0,0,0,.994.513,1.6,1.6,0,0,0,1.084-.261l1.844-1.146.456.157.485,2.125a1.648,1.648,0,0,0,.578.944A1.643,1.643,0,0,0,17.56-52.1Zm.166-1.535a.352.352,0,0,1-.39-.314l-.665-2.743A8.79,8.79,0,0,1,15.747-57a5.629,5.629,0,0,1-.8-.392l-2.4,1.493a.364.364,0,0,1-.509-.062L10.7-57.313a.353.353,0,0,1-.052-.5l1.474-2.4q-.171-.338-.361-.784a7.444,7.444,0,0,1-.323-.927l-2.752-.651a.355.355,0,0,1-.314-.395v-1.9a.372.372,0,0,1,.314-.4l2.743-.642a6.523,6.523,0,0,1,.333-.965q.2-.456.342-.765l-1.464-2.386a.391.391,0,0,1,.038-.528l1.35-1.326a.387.387,0,0,1,.518-.062l2.382,1.464a7.9,7.9,0,0,1,.82-.383,9.036,9.036,0,0,1,.934-.321l.656-2.743a.352.352,0,0,1,.39-.314h1.935a.352.352,0,0,1,.39.314l.656,2.762a7.169,7.169,0,0,1,.934.316,8.635,8.635,0,0,1,.791.378l2.4-1.474a.392.392,0,0,1,.523.062L26.7-70.562a.388.388,0,0,1,.043.528L25.27-67.648q.152.309.354.763a5.594,5.594,0,0,1,.326.967l2.748.642a.37.37,0,0,1,.309.4v1.9a.354.354,0,0,1-.309.395l-2.757.651a6.525,6.525,0,0,1-.311.929,7.727,7.727,0,0,1-.378.782l1.483,2.4a.364.364,0,0,1-.052.5l-1.336,1.35a.37.37,0,0,1-.513.062l-2.41-1.493a5.372,5.372,0,0,1-.782.392,7.682,7.682,0,0,1-.934.311l-.656,2.743a.352.352,0,0,1-.39.314Zm.965-6.037a4.09,4.09,0,0,0,2.139-.58A4.419,4.419,0,0,0,22.38-61.8a4.1,4.1,0,0,0,.58-2.142,4.028,4.028,0,0,0-.58-2.127,4.458,4.458,0,0,0-1.55-1.538,4.089,4.089,0,0,0-2.139-.58,4.077,4.077,0,0,0-2.137.58A4.505,4.505,0,0,0,15-66.072a4,4,0,0,0-.585,2.127A4.073,4.073,0,0,0,15-61.8a4.478,4.478,0,0,0,1.55,1.55A4.073,4.073,0,0,0,18.691-59.671Zm0-1.526a2.573,2.573,0,0,1-1.367-.376,2.874,2.874,0,0,1-.986-1,2.635,2.635,0,0,1-.371-1.374,2.6,2.6,0,0,1,.371-1.357,2.834,2.834,0,0,1,.989-.991,2.6,2.6,0,0,1,1.364-.371,2.584,2.584,0,0,1,1.355.371,2.834,2.834,0,0,1,.989.991,2.6,2.6,0,0,1,.371,1.357,2.635,2.635,0,0,1-.371,1.374,2.868,2.868,0,0,1-.989,1A2.56,2.56,0,0,1,18.691-61.2Z" fill="#6f7283"/>
  </g>
</svg>
