<svg xmlns="http://www.w3.org/2000/svg" width="24" height="24" viewBox="0 0 24 24">
  <g id="그룹_1643" data-name="그룹 1643" transform="translate(-86 -2039)">
    <g id="타원_588" data-name="타원 588" transform="translate(86 2039)" fill="#fff" stroke="#e2e2e2" stroke-width="1">
      <circle cx="12" cy="12" r="12" stroke="none"/>
      <circle cx="12" cy="12" r="11.5" fill="none"/>
    </g>
    <g id="Regular-S" transform="translate(83.781 2118.279)">
      <path id="패스_1942" data-name="패스 1942" d="M14.215-60.367a2.276,2.276,0,0,0,1.436-.526,4.535,4.535,0,0,0,1.166-1.463A8.775,8.775,0,0,0,17.6-64.55a12.313,12.313,0,0,0,.283-2.711,12.617,12.617,0,0,0-.279-2.725,8.612,8.612,0,0,0-.782-2.2,4.661,4.661,0,0,0-1.166-1.472,2.258,2.258,0,0,0-1.44-.53,2.265,2.265,0,0,0-1.436.53,4.577,4.577,0,0,0-1.166,1.472,8.73,8.73,0,0,0-.777,2.2,12.617,12.617,0,0,0-.279,2.725,12.508,12.508,0,0,0,.279,2.711,8.541,8.541,0,0,0,.782,2.194,4.618,4.618,0,0,0,1.166,1.463A2.258,2.258,0,0,0,14.215-60.367Zm0-12.829a1.37,1.37,0,0,1,.978.475,4.291,4.291,0,0,1,.828,1.308,9.28,9.28,0,0,1,.571,1.9,11.622,11.622,0,0,1,.21,2.254,11.452,11.452,0,0,1-.21,2.231,9.188,9.188,0,0,1-.571,1.888,4.3,4.3,0,0,1-.828,1.3,1.371,1.371,0,0,1-.978.475,1.363,1.363,0,0,1-.969-.475,4.3,4.3,0,0,1-.828-1.3,9.188,9.188,0,0,1-.571-1.888,11.452,11.452,0,0,1-.21-2.231,11.622,11.622,0,0,1,.21-2.254,9.28,9.28,0,0,1,.571-1.9,4.291,4.291,0,0,1,.828-1.308A1.363,1.363,0,0,1,14.215-73.2Zm-.53-.9V-60.5h1.061V-74.091Zm.53,9.4A11.515,11.515,0,0,0,12.1-64.5a8.123,8.123,0,0,0-1.8.539,4.553,4.553,0,0,0-1.3.827l.814.667a4.862,4.862,0,0,1,1.829-.864,10.088,10.088,0,0,1,2.569-.3,10.129,10.129,0,0,1,2.579.3,4.862,4.862,0,0,1,1.829.864l.814-.667a4.538,4.538,0,0,0-1.3-.827,8.223,8.223,0,0,0-1.8-.539A11.492,11.492,0,0,0,14.215-64.692ZM20.8-67.81H7.631v1.061H20.8ZM14.215-69.83a11.492,11.492,0,0,0,2.117-.187,8.223,8.223,0,0,0,1.8-.539,4.538,4.538,0,0,0,1.3-.827l-.814-.667a4.862,4.862,0,0,1-1.829.864,10.129,10.129,0,0,1-2.579.3,10.088,10.088,0,0,1-2.569-.3,4.862,4.862,0,0,1-1.829-.864L9-71.385a4.553,4.553,0,0,0,1.3.827,8.123,8.123,0,0,0,1.8.539A11.515,11.515,0,0,0,14.215-69.83Zm0,9.93a7.123,7.123,0,0,0,2.853-.576,7.465,7.465,0,0,0,2.354-1.6,7.623,7.623,0,0,0,1.6-2.359,7.052,7.052,0,0,0,.581-2.844,7.052,7.052,0,0,0-.581-2.844,7.584,7.584,0,0,0-1.6-2.359,7.519,7.519,0,0,0-2.359-1.6,7.123,7.123,0,0,0-2.853-.576,7.1,7.1,0,0,0-2.844.576,7.411,7.411,0,0,0-2.35,1.6,7.662,7.662,0,0,0-1.6,2.359,7.052,7.052,0,0,0-.581,2.844,7.052,7.052,0,0,0,.581,2.844,7.623,7.623,0,0,0,1.6,2.359,7.465,7.465,0,0,0,2.354,1.6A7.1,7.1,0,0,0,14.215-59.9Zm0-1.1a5.98,5.98,0,0,1-2.414-.494,6.446,6.446,0,0,1-2-1.362,6.431,6.431,0,0,1-1.362-2.007,6.012,6.012,0,0,1-.494-2.418A6.061,6.061,0,0,1,8.431-69.7,6.366,6.366,0,0,1,9.789-71.7a6.446,6.446,0,0,1,2-1.362,5.98,5.98,0,0,1,2.414-.494,6,6,0,0,1,2.423.494A6.5,6.5,0,0,1,18.636-71.7,6.392,6.392,0,0,1,20-69.7a6.012,6.012,0,0,1,.494,2.418A6.012,6.012,0,0,1,20-64.861a6.43,6.43,0,0,1-1.362,2.007,6.446,6.446,0,0,1-2,1.362A6,6,0,0,1,14.215-61Z" fill="#333"/>
    </g>
  </g>
</svg>
