<svg xmlns="http://www.w3.org/2000/svg" width="40" height="30" viewBox="0 0 40 30">
  <g id="그룹_1849" data-name="그룹 1849" transform="translate(-965 -447)">
    <path id="사각형_615" data-name="사각형 615" d="M16,0H40a0,0,0,0,1,0,0V22a8,8,0,0,1-8,8H0a0,0,0,0,1,0,0V16A16,16,0,0,1,16,0Z" transform="translate(965 447)" fill="#ff4b1a"/>
    <g id="그룹_1803" data-name="그룹 1803" transform="translate(978 454)">
      <rect id="사각형_1430" data-name="사각형 1430" width="16" height="16" fill="none"/>
      <g id="Ultralight-S" transform="translate(1.133 2.367)">
        <path id="패스_2014" data-name="패스 2014" d="M16.638-54.768a.418.418,0,0,0,.149-.033,1.117,1.117,0,0,0,.149-.07,28.03,28.03,0,0,0,3.394-2.64,12.338,12.338,0,0,0,2.328-2.8,5.663,5.663,0,0,0,.843-2.9,4.288,4.288,0,0,0-.494-2.081,3.706,3.706,0,0,0-1.355-1.429,3.675,3.675,0,0,0-1.941-.521,3.4,3.4,0,0,0-1.8.521,3.263,3.263,0,0,0-1.271,1.4,3.333,3.333,0,0,0-1.276-1.4,3.373,3.373,0,0,0-1.8-.521,3.668,3.668,0,0,0-1.946.521,3.752,3.752,0,0,0-1.355,1.429,4.255,4.255,0,0,0-.5,2.081,5.64,5.64,0,0,0,.847,2.9,12.5,12.5,0,0,0,2.328,2.8,27.726,27.726,0,0,0,3.389,2.64,1.251,1.251,0,0,0,.144.07A.424.424,0,0,0,16.638-54.768Z" transform="translate(-9.766 67.236)" fill="none" stroke="#fff" stroke-width="1.2"/>
      </g>
    </g>
  </g>
</svg>
