<svg xmlns="http://www.w3.org/2000/svg" xmlns:xlink="http://www.w3.org/1999/xlink" width="60" height="44" viewBox="0 0 60 44">
  <defs>
    <linearGradient id="linear-gradient" x1="0.5" x2="0.5" y2="1" gradientUnits="objectBoundingBox">
      <stop offset="0" stop-color="#fff" stop-opacity="0.251"/>
      <stop offset="1" stop-color="#fff" stop-opacity="0"/>
    </linearGradient>
  </defs>
  <g id="그룹_881" data-name="그룹 881" transform="translate(-85 -476)">
    <g id="그룹_594" data-name="그룹 594" transform="translate(60 -89)">
      <rect id="사각형_889" data-name="사각형 889" width="34" height="4" rx="2" transform="translate(38 565)" fill="#fff"/>
      <path id="패스_661" data-name="패스 661" d="M-1,0H29L44,40H-16Z" transform="translate(41 569)" fill="url(#linear-gradient)"/>
      <g id="그룹_598" data-name="그룹 598" opacity="0.6">
        <circle id="타원_197" data-name="타원 197" cx="1" cy="1" r="1" transform="translate(67 577)" fill="#fff"/>
        <circle id="타원_200" data-name="타원 200" cx="1" cy="1" r="1" transform="translate(41.564 573.063) rotate(-103)" fill="#fff"/>
        <circle id="타원_198" data-name="타원 198" cx="0.5" cy="0.5" r="0.5" transform="translate(65 581)" fill="#fff"/>
        <circle id="타원_201" data-name="타원 201" cx="0.5" cy="0.5" r="0.5" transform="translate(45.911 574.111) rotate(-103)" fill="#fff"/>
        <circle id="타원_202" data-name="타원 202" cx="0.5" cy="0.5" r="0.5" transform="translate(43.911 578) rotate(-103)" fill="#fff"/>
        <circle id="타원_199" data-name="타원 199" cx="0.5" cy="0.5" r="0.5" transform="translate(36 599)" fill="#fff"/>
      </g>
    </g>
    <g id="그룹_595" data-name="그룹 595" transform="translate(-9074 -7232)">
      <rect id="사각형_883" data-name="사각형 883" width="24" height="24" transform="translate(9177 7728)" fill="none"/>
      <path id="패스_660" data-name="패스 660" d="M-11.129,81.464c-.116-.726-1.229-1.352-1.74-1.8q-1.041-.905-2.082-1.812a.805.805,0,0,0-.1-.069l.011-.116a15.39,15.39,0,0,0-5.437-13.527A.614.614,0,0,0-20.9,64a.62.62,0,0,0-.43.141,15.061,15.061,0,0,0-5.5,12.009c0,.54.023,1.09.065,1.643a.568.568,0,0,0-.087.06q-1.041.908-2.082,1.812c-.522.454-1.61,1.064-1.74,1.8a16.7,16.7,0,0,0,0,2.788v2.624a.612.612,0,0,0,.911.524l4.74-2.429a1.78,1.78,0,0,0,1.507.878V87.4a.614.614,0,0,0,.605.605h4.022a.561.561,0,0,0,.41-.163l.02-.02.011-.011a.557.557,0,0,0,.164-.412V85.859a4.452,4.452,0,0,0,.569-.087,1.54,1.54,0,0,0,.945-.8L-12.04,87.4a.612.612,0,0,0,.911-.524V84.252A18.412,18.412,0,0,0-11.129,81.464Zm-9.778-7.172a2.019,2.019,0,0,1-2.017-2.018,2.019,2.019,0,0,1,2.017-2.017,2.019,2.019,0,0,1,2.017,2.017A2.019,2.019,0,0,1-20.907,74.292Z" transform="translate(9209.746 7663.998)" fill="#fff"/>
    </g>
  </g>
</svg>
