<svg id="구성_요소_34_4" data-name="구성 요소 34 – 4" xmlns="http://www.w3.org/2000/svg" width="24" height="24" viewBox="0 0 24 24">
  <rect id="사각형_2312" data-name="사각형 2312" width="24" height="24" fill="none"/>
  <g id="Regular-S" transform="translate(0.008)">
    <path id="패스_3333" data-name="패스 3333" d="M17.8-51.44h2.056a1.144,1.144,0,0,0,.744-.248,1.194,1.194,0,0,0,.408-.671l.6-2.552q.365-.117.7-.255t.642-.284l2.231,1.371a1.167,1.167,0,0,0,.744.182,1.087,1.087,0,0,0,.685-.328l1.443-1.443a1.122,1.122,0,0,0,.343-.707,1.146,1.146,0,0,0-.211-.765l-1.356-2.216a6.844,6.844,0,0,0,.292-.634q.131-.328.233-.649l2.581-.612a1.062,1.062,0,0,0,.656-.394,1.215,1.215,0,0,0,.233-.758v-2.012a1.168,1.168,0,0,0-.233-.729,1.062,1.062,0,0,0-.656-.394l-2.552-.627a7.451,7.451,0,0,0-.262-.7q-.146-.335-.262-.6l1.356-2.26a1.2,1.2,0,0,0,.2-.751,1.076,1.076,0,0,0-.335-.693l-1.473-1.443a1.2,1.2,0,0,0-.663-.321,1.22,1.22,0,0,0-.722.146l-2.275,1.4q-.292-.146-.627-.284t-.714-.255l-.6-2.6a1.194,1.194,0,0,0-.408-.671,1.144,1.144,0,0,0-.744-.248H17.8a1.144,1.144,0,0,0-.744.248,1.125,1.125,0,0,0-.394.671l-.612,2.566q-.35.117-.693.255t-.649.3l-2.26-1.385a1.121,1.121,0,0,0-1.4.175L9.577-71.167a1.076,1.076,0,0,0-.335.693,1.2,1.2,0,0,0,.2.751l1.356,2.26q-.117.262-.255.6t-.255.7l-2.552.627a1.093,1.093,0,0,0-.663.394,1.145,1.145,0,0,0-.241.729V-62.4a1.189,1.189,0,0,0,.241.758,1.093,1.093,0,0,0,.663.394l2.581.612a5.154,5.154,0,0,0,.226.649q.139.328.284.634L9.475-57.141a1.114,1.114,0,0,0-.2.765,1.19,1.19,0,0,0,.335.707l1.443,1.443a1.087,1.087,0,0,0,.685.328,1.224,1.224,0,0,0,.758-.182l2.231-1.371q.292.146.634.284t.693.255l.612,2.552a1.125,1.125,0,0,0,.394.671A1.144,1.144,0,0,0,17.8-51.44Zm1.035-7.99a3.85,3.85,0,0,1-2.019-.547,4.128,4.128,0,0,1-1.451-1.458,3.89,3.89,0,0,1-.539-2.019,3.825,3.825,0,0,1,.539-2A4.147,4.147,0,0,1,16.816-66.9a3.85,3.85,0,0,1,2.019-.547,3.824,3.824,0,0,1,2,.547,4.148,4.148,0,0,1,1.451,1.451,3.825,3.825,0,0,1,.539,2,3.89,3.89,0,0,1-.539,2.019,4.128,4.128,0,0,1-1.451,1.458A3.824,3.824,0,0,1,18.836-59.43Z" transform="translate(-6.836 75.439)" fill="#fff"/>
  </g>
</svg>
