<svg xmlns="http://www.w3.org/2000/svg" width="24" height="24" viewBox="0 0 24 24">
  <g id="그룹_1614" data-name="그룹 1614" transform="translate(-16 -678)">
    <circle id="타원_581" data-name="타원 581" cx="12" cy="12" r="12" transform="translate(16 678)" fill="#fc0d1b"/>
    <path id="패스_1900" data-name="패스 1900" d="M408.519,257.218a1.767,1.767,0,0,0-1.615-1.557c-.506-.075-2.94-.171-4.872-.171s-4.367.1-4.872.171a1.766,1.766,0,0,0-1.614,1.557,25.577,25.577,0,0,0-.2,2.936v.158a25.63,25.63,0,0,0,.2,2.938,1.764,1.764,0,0,0,1.614,1.554c.506.076,2.942.17,4.877.17h-.009c1.934,0,4.369-.1,4.876-.172a1.768,1.768,0,0,0,1.615-1.554,25.85,25.85,0,0,0,.2-2.938v-.158A25.8,25.8,0,0,0,408.519,257.218Zm-8.091,4.73v-3.429l3.208,1.674Z" transform="translate(-374.031 430.109)" fill="#fff"/>
  </g>
</svg>
